/* XPM */
static char * C:\Users\Margaux\Documents\42\Solong\assets\back1_xpm[] = {
"48 48 10 1",
" 	c None",
".	c #52333F",
"+	c #FFFFFF",
"@	c #B1C6CB",
"#	c #8F4D57",
"$	c #D09C8E",
"%	c #FFC2A1",
"&	c #4C6885",
"*	c #4FA4B8",
"=	c #FF8933",
"                                                ",
"                                                ",
"                                                ",
"                                                ",
"                                                ",
"                                                ",
"                                                ",
"                                                ",
"                                                ",
"                                                ",
"                      ....                      ",
"                      ....                      ",
"                    ..++++..                    ",
"                    ..++++..                    ",
"                  ..@@++++@@..                  ",
"                  ..@@++++@@..                  ",
"                ..##@@@@@@@@##..                ",
"                ..##@@@@@@@@##..                ",
"              ..++++########++++..              ",
"              ..++++########++++..              ",
"            ..@@++++++++++++++++@@..            ",
"            ..@@++++++++++++++++@@..            ",
"            ..@@++++++++++++++++@@..            ",
"            ..@@++++++++++++++++@@..            ",
"            ..@@@@++++++++++++@@@@..            ",
"            ..@@@@++++++++++++@@@@..            ",
"            ..@@@@@@@@@@@@@@@@@@@@..            ",
"            ..@@@@@@@@@@@@@@@@@@@@..            ",
"              ..@@@@@@@@@@@@@@@@..              ",
"              ..@@@@@@@@@@@@@@@@..              ",
"              ..@@$$@@@@@@@@$$@@..              ",
"              ..@@$$@@@@@@@@$$@@..              ",
"                ..$$%%%%%%%%$$..                ",
"                ..$$%%%%%%%%$$..                ",
"                ..&&********&&&&..              ",
"                ..&&********&&&&..              ",
"              ..==************&&..              ",
"              ..==************&&..              ",
"              ..%%&&$$$$******&&..              ",
"              ..%%&&$$$$******&&..              ",
"                ..####..$$$$$$##..              ",
"                ..####..$$$$$$##..              ",
"                  ....  ..####..                ",
"                  ....  ..####..                ",
"                        ..####..                ",
"                        ..####..                ",
"                          ....                  ",
"                          ....                  "};
