/* XPM */
static char * C:\Users\Margaux\Documents\42\Solong\assets\cdoor_xpm[] = {
"48 48 5 1",
" 	c None",
".	c #0F0B0D",
"+	c #794840",
"@	c #512D2F",
"#	c #29111F",
"                                                ",
"                                                ",
"                                                ",
"                                                ",
"                     .....                      ",
"                 ....+++++.....                 ",
"             ....+++.@@@@@.++++....             ",
"          ...+++.@@@.@@@@@.@@@@.+++...          ",
"         .++.@@@.@@@.......@@@@.@@@.++.         ",
"         .++.@@@....###.###.....@@@.++.         ",
"         .+@.....##.@@@#@@@.###.....@+.         ",
"         .+@..##.@@#@@@#@@@#@@@.##..@+.         ",
"          ...#@@#@@#@@@#@@@#@@@#@@#...          ",
"         .+@.#@@#@@#@@@#@@@#@@@#@@#.@+.         ",
"         .+@.#@@#@@#@@@#@@@#@@@#@@#.@+.         ",
"         .+@.#@@#@@#@@@#@@@#@@@#@@#.@+.         ",
"         .+@.#@@#@@#@@@#@@@#@@@#@@#.@+.         ",
"         .+@.#@@#@@#@@@#@@@#@@@#@@#.@+.         ",
"         .+@.#@@#@@#@@@#@@@#@@@#@@#.@+.         ",
"         .+@.#@@#@@#@@@#@@@#@@@#@@#.@+.         ",
"         .+@.#@@#@@#@@@#@@@#@@@#@@#.@+.         ",
"          ...#@@#@@#@@@#@@@#@@@#@@#...          ",
"         .+@.#@@#@@#@@@#@@@#@@@#@@#.@+.         ",
"         .+@.#@@#@@#@@@#@@@#@@@#@@#.@+.         ",
"         .+@.#@@#@@#@@@#@@@#@@@#@@#.@+.         ",
"         .+@.#@@#@@#@@@#@@@#@@@#@@#.@+.         ",
"         .+@.#@@#@@#@@@#@@@#@@@#@@#.@+.         ",
"         .+@.#@@#@@#@@@#@@@#@@@..@#.@+.         ",
"         .+@.#@@#@@#@@@#@@@#@@.@@.#.@+.         ",
"         .+@.#@@#@@#@@@#@@@#@@.##.#.@+.         ",
"          ...#@@#@@#@@@#@@@#@@#..##...          ",
"         .+@.#@@#@@#@@@#@@@#@@@##@#.@+.         ",
"         .+@.#@@#@@#@@@#@@@#@@@#@@#.@+.         ",
"         .+@.#@@#@@#@@@#@@@#@@@#@@#.@+.         ",
"         .+@.#@@#@@#@@@#@@@#@@@#@@#.@+.         ",
"         .+@.#@@#@@#@@@#@@@#@@@#@@#.@+.         ",
"         .+@.#@@#@@#@@@#@@@#@@@#@@#.@+.         ",
"         .+@.#@@#@@#@@@#@@@#@@@#@@#.@+.         ",
"         .+@.#@@#@@#@@@#@@@#@@@#@@#.@+.         ",
"         .+@.#@@#@@#@@@#@@@#@@@#@@#.@+.         ",
"         .+@.#@@#@@#@@@#@@@#@@@#@@#.@+.         ",
"          ...#@@#@@#@@@#@@@#@@@#@@#...          ",
"         .+@.#@@#@@#@@@#@@@#@@@#@@#.@+.         ",
"         .+@.#@@#@@#@@@#@@@#@@@#@@#.@+.         ",
"         .+@.#@@#@@#@@@#@@@#@@@#@@#.@+.         ",
"         .+@.#@@#@@#@@@#@@@#@@@#@@#.@+.         ",
"        .++@.#@@#@@#@@@#@@@#@@@#@@#.@++.        ",
"        .@@@..##.##.###.###.###.##..@@@.        "};
