/* XPM */
static char * C:\Users\Margaux\Documents\42\Solong\assets\digits_xpm[] = {
"180 48 19 1",
" 	c None",
".	c #502899",
"+	c #512899",
"@	c #50299A",
"#	c #502799",
"$	c #502898",
"%	c #502998",
"&	c #512799",
"*	c #4F289A",
"=	c #502999",
"-	c #4F2898",
";	c #51289A",
">	c #50289A",
",	c #4F2899",
"'	c #502798",
")	c #4F2999",
"!	c #50279A",
"~	c #51279A",
"{	c #512898",
"                                                                                                                                                                                    ",
"                                                                                                                                                                                    ",
"                                                                                                                                                                                    ",
"                                                                                                                                                                                    ",
"                                                                                                                                                                                    ",
"                                                                                                                                                                                    ",
"                                                                                                                                                                                    ",
"                                                                                                                                                                                    ",
"                                                                                                                                                                                    ",
"                                                                                                                                                                                    ",
"                                                                                                                                                                                    ",
"                                                                                                                                                                                    ",
"                                                                                                                                                                                    ",
"                                                                                                                                                                                    ",
"      ...+@            #.....           $.....%           &.+...$               .....        ..........*           #....=       .............        ......-           ;=...=       ",
"    +........        ........         ..........=       -..........            =.....        ..........*         .........      .............      -.........>       +........      ",
"   ..........$       ........         ...........;      -...........          #......        ..........*        ..........      ............=     ,...........      ...........     ",
"  #...=   ,...       .%  ....         ..,    .....      >+     .....          .......        ...               ....*     #              ....      ....'   ....,     ....)  +....    ",
"  ....    )...+          ....         #       ....              ....         -..,....        ...              =...$                    +....      ....    ,...#    )....    ....    ",
"  ...#     ....          ....                 ....              ....         ... ....        ...              ....                     ,...@      ....    ,...#    @...>    ,....   ",
" #....     ....          ....                 ....             ....;        ...  ....        ...+...#         .... @...+               ....       +....   ....     ....>    =....   ",
" '...$     ....          ....                 ...,         .......+        !..#  ....        ..........       ...........-            .....        %........,      $...,    +....   ",
" +...=     ,...)         ....                ....#         ......+         ...   ....        ...........      ............            ....          ,......#        ....~  '.....   ",
" +...;     ....)         ....               ....#          .........      ...    ....        ,     .....#    ......   @....          *...$         ..........>      .............   ",
" '...$     ....          ....              ....'               .....     ;...    ....               ....=     ....%    ....          ....         ....,   ....%      ............   ",
" #...@     ....          ....             ....=                 ....=    ...     ....               '....     ....     ....         ;....         ....     ....        @..=+ ....   ",
"  ....     ....          ....            ....-                  ....'    ..............+            '....     ....     ....         ....          ....     ....             #...;   ",
"  ....    ....+          ....           ....#                   #...$    ..............+            .....     ,...%    ....         ....          ....     ....             ....    ",
"  #...,   ,...           ....         {....             .      .....     ..............+    .)     .....@      ....   .....        ....+          ....-   .....     ,.     ....!    ",
"   ..........+       ............     ............!     ...........=             ....       ............       ...........         ....           #...........#     +..........     ",
"    +.......#        ............     ............!     ...........              ....       ...........         '........         -...#            ...........      +........'      ",
"      -....          ............     ............!      ~=......                ....         {+...=,             ,....)          ....               #.....&          .....-        ",
"                                                                                                                                                                                    ",
"                                                                                                                                                                                    ",
"                                                                                                                                                                                    ",
"                                                                                                                                                                                    ",
"                                                                                                                                                                                    ",
"                                                                                                                                                                                    ",
"                                                                                                                                                                                    ",
"                                                                                                                                                                                    ",
"                                                                                                                                                                                    ",
"                                                                                                                                                                                    ",
"                                                                                                                                                                                    ",
"                                                                                                                                                                                    ",
"                                                                                                                                                                                    ",
"                                                                                                                                                                                    ",
"                                                                                                                                                                                    ",
"                                                                                                                                                                                    "};
