/* XPM */
static char * C:\Users\Margaux\Documents\42\Solong\assets\front0_xpm[] = {
"48 48 12 1",
" 	c None",
".	c #52333F",
"+	c #B1C6CB",
"@	c #8F4D57",
"#	c #FFFFFF",
"$	c #D09C8E",
"%	c #FFC2A1",
"&	c #4C6885",
"*	c #3A3F5E",
"=	c #FF8933",
"-	c #AB5130",
";	c #4FA4B8",
"                                                ",
"                                                ",
"                                                ",
"                                                ",
"                                                ",
"                                                ",
"                                                ",
"                                                ",
"                                                ",
"                                                ",
"                                                ",
"                                                ",
"                      ....                      ",
"                      ....                      ",
"                    ..++++..                    ",
"                    ..++++..                    ",
"                  ..@@@@@@@@..                  ",
"                  ..@@@@@@@@..                  ",
"                ..++########++..                ",
"                ..++########++..                ",
"              ..++############++..              ",
"              ..++############++..              ",
"            ..++++############++++..            ",
"            ..++++############++++..            ",
"            ..++++++++++++++++++++..            ",
"            ..++++++++++++++++++++..            ",
"            ..++++$$%%%%%%%%$$++++..            ",
"            ..++++$$%%%%%%%%$$++++..            ",
"              ..++%%%%%%%%%%%%++..              ",
"              ..++%%%%%%%%%%%%++..              ",
"              ..++%%&&%%%%&&%%++..              ",
"              ..++%%&&%%%%&&%%++..              ",
"              ..++%%**%%%%**%%++..              ",
"              ..++%%**%%%%**%%++..              ",
"              ..@@$$%%%%%%%%$$@@..              ",
"              ..@@$$%%%%%%%%$$@@..              ",
"            ..==&&@@--$$$$--@@&&==..            ",
"            ..==&&@@--$$$$--@@&&==..            ",
"            ..%%&&;;;;;;;;;;;;&&%%..            ",
"            ..%%&&;;;;;;;;;;;;&&%%..            ",
"              ..@@$$%%%%%%%%$$@@..              ",
"              ..@@$$%%%%%%%%$$@@..              ",
"                ..$$%%%%%%%%$$..                ",
"                ..$$%%%%%%%%$$..                ",
"                  ....    ....                  ",
"                  ....    ....                  ",
"                                                ",
"                                                "};
