/* XPM */
static char * C:\Users\Margaux\Documents\42\Solong\assets\grass_xpm[] = {
"48 48 6 1",
" 	c #719928",
".	c #5D7A1E",
"+	c #AAB254",
"@	c #5C7445",
"#	c #E5E15E",
"$	c #5C8045",
"            .                +                  ",
"          . . .            + + +                ",
" .        . . .   +        + + +                ",
" .        . . .   +                             ",
" . .              + +                           ",
" . .                                            ",
"                                                ",
"                                                ",
"    .                +                          ",
"  . . .            + + +                        ",
"  . . .            + + +                        ",
"  . . .    .                +                   ",
"           . .              + +                 ",
"           . .              + +                 ",
"           . .                                  ",
"                                                ",
"                            .                +  ",
"     .     @ .            . . .            + + +",
"  @       @#@. . .        . . .   +        + + +",
" @@@   .   @ . . .        . . .   +             ",
"  @    .   $ $ $ . .              + +           ",
"  . .            . .                            ",
"  . $                                           ",
"                                                ",
".          .        .                +          ",
".    .     .      . . .            + + +        ",
"   . . .   .      . . .            + + +        ",
"   . . .          . . .    .                +   ",
"   $ $ $    .              . .              + + ",
".        .  . .            . .              + + ",
"        .   . .            . .                  ",
"            $ $                                 ",
"                                                ",
"     .     @ .                                  ",
"  @       @#@. .          + #                   ",
" @@@   .   @ . . +       +#++ +                 ",
"  @    .   $ $ $+++       + + +                 ",
"  . .            +                              ",
"  . $            + +                            ",
"                                                ",
".          .                                    ",
".    .     .                                    ",
"   . . .   .        #                           ",
"   . . .          # + +                         ",
"   $ $ $    .     + + +                         ",
".        .  . .            +                    ",
"        .   . .            + +                  ",
"            $ $            + +                  "};
