/* XPM */
static char * C:\Users\Margaux\Documents\42\Solong\assets\grass_xpm[] = {
"48 48 11 1",
" 	c #72751B",
".	c #7F8226",
"+	c #787B21",
"@	c #656C17",
"#	c #B3B0A9",
"$	c #A2814F",
"%	c #636917",
"&	c #9CA8AD",
"*	c #BD9842",
"=	c #A2783C",
"-	c #C6A740",
"                                                ",
"        .++                                     ",
"         +++                                    ",
"          @@                                    ",
"                                                ",
"                                                ",
"                                                ",
"                                                ",
"                                                ",
"                                                ",
"                                                ",
"                            ++                  ",
"                           .+                   ",
"                          ++@                   ",
"                      ..+ ++@                   ",
"                       .++@+@                   ",
"    ##                 @++@@                    ",
"   #$$# ##              @@                 .    ",
"   %##%#$#                          +..   .     ",
"  ##%% ##%                           .&& ..     ",
"  $#   %%                            &$$&++     ",
"  %%                                 %&&%##     ",
"                                      %% $#     ",
"                                         %%     ",
"                                                ",
"                                                ",
"                                                ",
"                                                ",
"                                                ",
"                                                ",
"                                                ",
"                                                ",
"                                                ",
"                                                ",
"      ..                                        ",
"       .+    .                                  ",
"       +++ +.                                   ",
"    .++@++++@                                   ",
"     ++**@++@                                   ",
"     @*==*+@                                    ",
"      %**% --                                   ",
"    -- %%  =-           .+                      ",
"   -==-    %%      .+  +.@                      ",
"   %--%            @++ ++                       ",
"    %%              @+++@                       ",
"                    @++@                        ",
"                     @+                         ",
"                                                "};
