/* XPM */
static char * C:\Users\Margaux\Documents\42\Solong\assets\grass_xpm[] = {
"64 64 13 1",
" 	c #72751B",
".	c #656C17",
"+	c #787B21",
"@	c #7F8226",
"#	c #BD9842",
"$	c #A2783C",
"%	c #C6A740",
"&	c #636917",
"*	c #9CA8AD",
"=	c #B3B0A9",
"-	c #A2814F",
";	c #7F8124",
">	c #686F16",
"                    .++ ..                                      ",
"                     ..                                    @    ",
"                                                          @     ",
"                                                         ++     ",
"                                                         ++.    ",
"                                                         ..+@   ",
"                                                           ++   ",
"                                                           ..   ",
"        ##                                                      ",
"       #$$# %%                        @@     @                  ",
"       &##&%$%                         @++ +@                   ",
"        && %%&                      +@@.+.++.                   ",
"           &&                        @++**++.  ==               ",
"                                     .+*--*.   -=               ",
"                                      .&**&==  &&               ",
"                                        &&=-=                   ",
"                                          ==&                   ",
"                                          &&                    ",
"                                                                ",
"                                                                ",
"                                                                ",
"                                                                ",
"                                                                ",
"      ;                                                         ",
"       ;                           ++                           ",
"       ++                          >;;                          ",
"      >++                           ;++   +                     ",
"     ;+>>                           >++ ;+                      ",
"     ++                             >+++%%            ;         ",
"     >>                              >>%$$%          ++  ;;+    ",
"                                       &%%&##     +  +> ++;     ",
"                                        && $#      ;+>  ++>     ",
"                                           &&      ++%%++>+;    ",
"                          +                         %$$%>++>    ",
"                          ++                        &%%&>+>     ",
"                         ==+                         &&  ##     ",
"                        =-=>                  ;;+       #$$#    ",
"                        ==&                    ;++      &##&    ",
"    ;;     ;            &&                     >++     %%&&     ",
"     ;++ +;                                     >>    %$%&      ",
"  +;;>+>++>                                           %%&       ",
"   ;+==>++> ;;   ;                                    &&        ",
"   >=--=+>   ;; ;                                               ",
"    &==&     ++>+                  ;;    ++                     ",
"     &&     **+>>                   ;+ %%+                   ;; ",
"           *--*                     >++%$+              +  ++;  ",
"           &**& **                  >++&&>              ;;>++>  ",
"            &&  -*                   >>                 ;++>>   ",
"                &&                                      >++     ",
"                                                                ",
"                                                                ",
"                                                                ",
"                                                                ",
"                                                                ",
"                                                                ",
"                                                                ",
"                                                                ",
"                                                                ",
"                                                                ",
"                                                                ",
"                                                ;;   ;          ",
"                                                 ;; ;           ",
"                                                 ++>+           ",
"                                                 >+>>           "};
