/* XPM */
static char * C:\Users\Margaux\Documents\42\Solong\assets\left2_xpm[] = {
"48 48 13 1",
" 	c None",
".	c #52333F",
"+	c #B1C6CB",
"@	c #8F4D57",
"#	c #FFFFFF",
"$	c #D09C8E",
"%	c #FFC2A1",
"&	c #4C6885",
"*	c #3A3F5E",
"=	c #AB5130",
"-	c #FF8933",
";	c #CF752B",
">	c #4FA4B8",
"                                                ",
"                                                ",
"                                                ",
"                                                ",
"                                                ",
"                                                ",
"                                                ",
"                                                ",
"                                                ",
"                                                ",
"                          ....                  ",
"                          ....                  ",
"                        ..++++..                ",
"                        ..++++..                ",
"                ........@@@@++++..              ",
"                ........@@@@++++..              ",
"              ..##########++@@++..              ",
"              ..##########++@@++..              ",
"            ..############++++@@..              ",
"            ..############++++@@..              ",
"          ..++++########++++++..                ",
"          ..++++########++++++..                ",
"          ..++++++++++++++++++..                ",
"          ..++++++++++++++++++..                ",
"            ..$$%%%%%%++++++++..                ",
"            ..$$%%%%%%++++++++..                ",
"            ..%%%%%%%%%%$$++++..                ",
"            ..%%%%%%%%%%$$++++..                ",
"            ..%%%%&&%%%%$$++++..                ",
"            ..%%%%&&%%%%$$++++..                ",
"            ..%%%%**%%%%$$++..                  ",
"            ..%%%%**%%%%$$++..                  ",
"              ..%%%%%%$$$$..                    ",
"              ..%%%%%%$$$$..                    ",
"                ..======@@&&..                  ",
"                ..======@@&&..                  ",
"              ..%%$$&&--;;&&..                  ",
"              ..%%$$&&--;;&&..                  ",
"              ..>>&&%%--&&$$..                  ",
"              ..>>&&%%--&&$$..                  ",
"              ..%%%%%%$$$$&&..                  ",
"              ..%%%%%%$$$$&&..                  ",
"              ..$$%%%%$$$$@@..                  ",
"              ..$$%%%%$$$$@@..                  ",
"                ..............                  ",
"                ..............                  ",
"                                                ",
"                                                "};
