/* XPM */
static char * C:\Users\Margaux\Documents\42\Solong\assets\marble_xpm[] = {
"48 48 19 1",
" 	c #72751B",
".	c #7F8226",
"+	c #787B21",
"@	c #656C17",
"#	c #000000",
"$	c #8F8914",
"%	c #E0D51A",
"&	c #5B580D",
"*	c #B3B0A9",
"=	c #FEF776",
"-	c #FFF542",
";	c #A2814F",
">	c #636917",
",	c #FFFFFF",
"'	c #9CA8AD",
")	c #2E2C07",
"!	c #BD9842",
"~	c #A2783C",
"{	c #C6A740",
"                                                ",
"        .++                                     ",
"         +++                                    ",
"          @@                                    ",
"                                                ",
"                                                ",
"                                                ",
"                                                ",
"                                                ",
"                                                ",
"                    ########                    ",
"                    ########++                  ",
"                ####$$$$$$$$####                ",
"                ####$$$$$$$$####                ",
"              ##$$$$%%%%%%$$$$&&##              ",
"              ##$$$$%%%%%%$$$$&&##              ",
"    **      ##$$%%==----%%%%$$$$&&##            ",
"   *;;* **  ##$$%%==----%%%%$$$$&&##       .    ",
"   >**>*;*  ##$$==,,==--%%%%$$$$&&##+..   .     ",
"  **>> **>  ##$$==,,==--%%%%$$$$&&## .'' ..     ",
"  ;*   >> ##$$%%--==----%%%%$$$$&&))##;;'++     ",
"  >>      ##$$%%--==----%%%%$$$$&&))##''>**     ",
"          ##$$%%------%%%%%%$$$$&&))##>> ;*     ",
"          ##$$%%------%%%%%%$$$$&&))##   >>     ",
"          ##$$%%%%%%%%%%%%$$$$$$&&))##          ",
"          ##$$%%%%%%%%%%%%$$$$$$&&))##          ",
"          ##$$$$%%%%%%%%$$$$$$&&&&))##          ",
"          ##$$$$%%%%%%%%$$$$$$&&&&))##          ",
"            ##$$$$$$$$$$$$$$&&&&))##            ",
"            ##$$$$$$$$$$$$$$&&&&))##            ",
"            ##&&$$$$$$$$$$&&&&&&))##            ",
"            ##&&$$$$$$$$$$&&&&&&))##            ",
"              ##&&&&&&&&&&&&))))##              ",
"              ##&&&&&&&&&&&&))))##              ",
"      ..        ####))))))))####                ",
"       .+    .  ####))))))))####                ",
"       +++ +.       ########                    ",
"    .++@++++@       ########                    ",
"     ++!!@++@                                   ",
"     @!~~!+@                                    ",
"      >!!> {{                                   ",
"    {{ >>  ~{           .+                      ",
"   {~~{    >>      .+  +.@                      ",
"   >{{>            @++ ++                       ",
"    >>              @+++@                       ",
"                    @++@                        ",
"                     @+                         ",
"                                                "};
