/* XPM */
static char * C:\Users\Margaux\Documents\42\Solong\assets\marble_xpm[] = {
"48 48 11 1",
" 	c None",
".	c #6B1719",
"+	c #F5A3A5",
"@	c #EE5155",
"#	c #AF1F22",
"$	c #FADAD3",
"%	c #FFFFFF",
"&	c #E86E2B",
"*	c #F7D76E",
"=	c #F8BB0B",
"-	c #F6E4AE",
"                                                ",
"                                                ",
"                                                ",
"                                                ",
"                                                ",
"                                                ",
"                                                ",
"                                                ",
"                                                ",
"                                                ",
"                                                ",
"                                                ",
"                                                ",
"                                                ",
"                                                ",
"                                                ",
"                     ......                     ",
"                   ..++++++..                   ",
"                  .++@@@@@@++.                  ",
"                 .+@@#####$%$+.                 ",
"                 .+@##&##&%%%+.                 ",
"                .+@##&&&##$%$@+.                ",
"                .+@#&*&#&##&#@+.                ",
"                .+@#=*&######@+.                ",
"                .+@#&-=&#&&=#@+.                ",
"                .+@#&*-*&=&##@+.                ",
"                .+@##=&&*&&##@+.                ",
"                 .+@###&=&##@+.                 ",
"                 .+@@######@@+.                 ",
"                  .++@@@@@@++.                  ",
"                   ..++++++..                   ",
"                     ......                     ",
"                                                ",
"                                                ",
"                                                ",
"                                                ",
"                                                ",
"                                                ",
"                                                ",
"                                                ",
"                                                ",
"                                                ",
"                                                ",
"                                                ",
"                                                ",
"                                                ",
"                                                ",
"                                                "};
