/* XPM */
static char * C:\Users\Margaux\Documents\42\Solong\assets\mushroom_xpm[] = {
"48 48 9 1",
" 	c None",
".	c #751C1C",
"+	c #D23232",
"@	c #FCF2DE",
"#	c #D0C8B7",
"$	c #A72828",
"%	c #7A705B",
"&	c #BDAE8D",
"*	c #EEDBB1",
"                                                ",
"                                                ",
"                                                ",
"                                                ",
"                                                ",
"                                                ",
"                                                ",
"                                                ",
"                                                ",
"                                                ",
"                                                ",
"                                                ",
"                                                ",
"                                                ",
"                                                ",
"                      .....                     ",
"                    ..+++++..                   ",
"                  ..+++++++++..                 ",
"                ..+++++++@@@+++..               ",
"               .++++++++@@@@@++++.              ",
"               .++++++++@@@@@++++.              ",
"              .+++++++++@@@@@+++++.             ",
"              .+@@@++++++@@@++++++.             ",
"              .@@@@@+++++++++++++@.             ",
"              .@@@@@+++++++++++++@.             ",
"               .#@@@++++++++++++$.              ",
"                .##$+++++++++$$$.               ",
"                 .$$$$$$$$$$$$$.                ",
"                  .............                 ",
"                   %&&&&&&&&&%                  ",
"                   %*********%                  ",
"                   %*********%                  ",
"                   %*********%                  ",
"                    %*******%                   ",
"                    %*******%                   ",
"                     %%%%%%%                    ",
"                                                ",
"                                                ",
"                                                ",
"                                                ",
"                                                ",
"                                                ",
"                                                ",
"                                                ",
"                                                ",
"                                                ",
"                                                ",
"                                                "};
