/* XPM */
static char * C:\Users\Margaux\Documents\42\Solong\assets\odoor_xpm[] = {
"48 48 25 1",
" 	c None",
".	c #0F0B0D",
"+	c #794840",
"@	c #512D2F",
"#	c #686F99",
"$	c #656C95",
"%	c #53597A",
"&	c #3D2222",
"*	c #A3A7C2",
"=	c #82869B",
"-	c #3E2323",
";	c #B2B3BA",
">	c #DFE0E8",
",	c #422525",
"'	c #C4CCBA",
")	c #F5FFE8",
"!	c #B0B1B8",
"~	c #404973",
"{	c #361F20",
"]	c #C3CBB9",
"^	c #3A2122",
"/	c #333A5C",
"(	c #2C354D",
"_	c #232A3E",
":	c #392122",
"                                                ",
"                                                ",
"                                                ",
"                                                ",
"                     .....                      ",
"                 ....+++++.....                 ",
"             ....+++.@@@@@.++++....             ",
"          ...+++.@@@.@@@@@.@@@@.+++...          ",
"         .++.@@@.@@@.......@@@@.@@@.++.         ",
"         .++.@@@.....####$......@@@.++.         ",
"         .+@.....#############$.....@+.         ",
"         .+@..%##################%..@+.         ",
"          ..&.%*#*#*#*#*#*#*#*#*#=.-..          ",
"         .+@..=#*#*#*#*#*#*#*#*#*%..@+.         ",
"         .+@..=******************=..@+.         ",
"         .+@..=******************=..@+.         ",
"         .+@..=******************=..@+.         ",
"         .+@..=******************=..@+.         ",
"         .+@..;*>*>*>*>*>*>*>*>*>=..@+.         ",
"         .+@..=>*>*>*>*>*>*>*>*>*;..@+.         ",
"         .+@..;>>>>>>>>>>>>>>>>>>;..@+.         ",
"          ..-.;>>>>>>>>>>>>>>>>>>;.,..          ",
"         .+@..;>>>>>>>>>>>>>>>>>>;..@+.         ",
"         .+@..;>>>>>>>>>#>>>>>>>>;..@+.         ",
"         .+@..;>>>>>>>>###>>>>>>>;..@+.         ",
"         .+@..;>>>>>>>>###>>>>>>>;..@+.         ",
"         .+@..;>>>>>>>#####>>>>>>;..@+.         ",
"         .+@..'>)>)>)>#####>)>)>);..@+.         ",
"         .+@..!)~)>)>#######>)>)>'..@+.         ",
"         .+@..'~~~)))#######)))))'..@+.         ",
"          ..{.]~~~))))#####))))))'.^..          ",
"         .+@../~~~~)))))#))))))))'..@+.         ",
"         .+@../~~~~))#######)))))'..@+.         ",
"         .+@../~~~~~############)'..@+.         ",
"         .+@../~~~~~#############%..@+.         ",
"         .+@../~~~~##############%..@+.         ",
"         .+@..%#~############(##(_..@+.         ",
"         .+@../~~~~~###(###((####_..@+.         ",
"         .+@../~~~~~(~~(####(#(((_..@+.         ",
"         .+@../~~~~(~~~~(~(((((((_..@+.         ",
"         .+@../~(~~~(((((((((((((_..@+.         ",
"          ..^./(~~~~(((((((((((((_.:..          ",
"         .+@../(~~(((((((((((((((_..@+.         ",
"         .+@../~(((((((((((((((((_..@+.         ",
"         .+@../((((((((((((((((((_..@+.         ",
"         .+@.._((((((((((((((((((_..@+.         ",
"        .++@.._((((((((((((((((((_..@++.        ",
"        .@@@.._((((((((((((((((((_..@@@.        "};
