/* XPM */
static char * C:\Users\Margaux\Documents\42\Solong\assets\tree_xpm[] = {
"48 48 21 1",
" 	c #72751B",
".	c #7F8226",
"+	c #787B21",
"@	c #656C17",
"#	c #082B0C",
"$	c #347B2C",
"%	c #53A03B",
"&	c #B3B0A9",
"*	c #114517",
"=	c #A2814F",
"-	c #342319",
";	c #927B39",
">	c #503625",
",	c #545728",
"'	c #775937",
")	c #21110D",
"!	c #755338",
"~	c #5D602C",
"{	c #585B2A",
"]	c #494E26",
"^	c #4A5026",
"                                                ",
"        .++                                     ",
"         +++                                    ",
"          @@                                    ",
"                                                ",
"                                                ",
"          #####  ##               #####  ##     ",
"         #$%%%%##%%#             #$%%%%##%%#    ",
"       ##$%%%%%$%%$#           ##$%%%%%$%%$#    ",
"      #$$%%%%%%%$$##          #$$%%%%%%%$$##    ",
"     #%%%$%%%%%%%%%$#        #%%%$%%%%%%%%%$#   ",
"     #$%%%%%%%%%%%%%$#      +#$%%%%%%%%%%%%%$#  ",
"    #%%%%%%%%%%%%%%%$#     .#%%%%%%%%%%%%%%%$#  ",
"    #$%%%%%%%%%%%%%%%#    ++#$%%%%%%%%%%%%%%%#  ",
"     #$%%%%%%%%%%$%%%#..+ ++@#$%%%%%%%%%%$%%%#  ",
"    #%%%%%%%%%%%%%$$#  .++@+#%%%%%%%%%%%%%$$#   ",
"    #%$%%%%%%%%%%%%%$# @++@@#%$%%%%%%%%%%%%%$#  ",
"   &#$%%%%%%%%%%%%$%%$# @@  #$%%%%%%%%%%%%$%%$# ",
"   #$%%%%%%%%%%%%$*%%%#    #$%%%%%%%%%%%%$*%%%# ",
"  &#$%%%%%%%%%%%%*%$%%#    #$%%%%%%%%%%%%*%$%%# ",
"  =#$%%$%$%%%%%%$%%%*$#    #$%%$%$%%%%%%$%%%*$# ",
"  #$#$%%$%%%%%%%%%%%$#    #$#$%%$%%%%%%%%%%%$#  ",
"  #$%%%%$%%%$%%%%%%%%%#   #$%%%%$%%%$%%%%%%%%%# ",
" #$%%%%%%$%%*$%%%%%%%%#  #$%%%%%%$%%*$%%%%%%%%# ",
" #$%%%%%%%$*%%%%%%%%%##  #$%%%%%%%$*%%%%%%%%%## ",
" #$%*%$%%%%%%%%%%%%%%%#  #$%*%$%%%%%%%%%%%%%%%# ",
"  #$$**%%%%%%%%%%%%%%%%#  #$$**%%%%%%%%%%%%%%%%#",
"   ##%**%%%%%%%%%%%%$%%#   ##%**%%%%%%%%%%%%$%%#",
"   #$%%%%%%%%$%$%%%%*%%#   #$%%%%%%%%$%$%%%%*%%#",
"  #$%%%%%%%%%$$%%%%*$%$#  #$%%%%%%%%%$$%%%%*$%$#",
"  #%%%%%%%%%$%%%%$*$*###  #%%%%%%%%%$%%%%$*$*###",
"  #$%%%%%%%%%%$%%%%%$*#   #$%%%%%%%%%%$%%%%%$*# ",
"  #**$%%$%$%%%%$%%%%$$#   #**$%%$%$%%%%$%%%%$$# ",
"   ###*$%%*$%%%$%$$%%$#    ###*$%%*$%%%$%$$%%$# ",
"    #*$%%%$*$%%%%%$#%%#     #*$%%%$*$%%%%%$#%%# ",
"   #*$%%%%$***$%%%$$#%#    #*$%%%%$***$%%%$$#%# ",
"   #*%$%%$%%*$$%%%%$##     #*%$%%$%%*$$%%%%$##  ",
"   #***#$%%%$$%%%$%$*#     #***#$%%%$$%%%$%$*#  ",
"   #**##%$*$%*%%$*$$$#     #**##%$*$%*%%$*$$$#  ",
"    ##*##***#***##*$$#      ##*##***#***##*$$#  ",
"     #**#**#-#***#**#        #**#**#-#***#**#   ",
"    ;;#####->-######,,  .+  ,,#####->-######,,  ",
"   ;'';)->)!!!>>-))~{,,+.@ ,,,,)->)!!!>>-)),,,, ",
"   ];;])>>-!!>>)!>)^{{,++  ,,,,)>>-!!>>)!>),,,, ",
"   ,]],,)))-!>)))),,^{{+@  ,,,,,)))-!>)))),,,,, ",
"    ,,,,,,,)))),,,,,^{+@    ,,,,,,,)))),,,,,,,  ",
"     ,,,,,,,,,,,,,,,,@+      ,,,,,,,,,,,,,,,,   ",
"        ,,,,,,,,,,,             ,,,,,,,,,,,     "};
