/* XPM */
static char * C:\Users\Margaux\Documents\42\Solong\assets\tree_xpm[] = {
"64 64 29 1",
" 	c #72751B",
".	c #656C17",
"+	c #787B21",
"@	c #082B0C",
"#	c #347B2C",
"$	c #53A03B",
"%	c #7F8226",
"&	c #114517",
"*	c #BD9842",
"=	c #A2783C",
"-	c #C6A740",
";	c #636917",
">	c #7F8124",
",	c #686F16",
"'	c #B3B0A9",
")	c #A2814F",
"!	c #9CA8AD",
"~	c #342319",
"{	c #21110D",
"]	c #927B39",
"^	c #545728",
"/	c #503625",
"(	c #775937",
"_	c #585B2A",
":	c #737C82",
"<	c #755338",
"[	c #494E26",
"}	c #4D5226",
"|	c #775F42",
"                    .++ .. @@@@@                                ",
"                     ..   @#$$$#@@  @@@@                   %    ",
"                    @@@@ @#$$$$$$#@@#$$$@                 %     ",
"                   @#$$#@#$$$$$$$$$#$$$$$@@@@            ++     ",
"                  @#$$$$$#$$$$$$$$$#$$$$$@$$#@           ++.    ",
"                  @#$$$$$$#$$$$$$$$$$$$$$$$$$#@          ..+%   ",
"               @@@&&$$$$$$$$$$$$$$$$$$$$$$$$$#@            ++   ",
"              @##&$$#$$$$$$$$$$$$$$$$$$$$$$$$&&@           ..   ",
"        **   @#$$#$$$$$$$$$$$$$$$$$$$$$$$$$$&$$@                ",
"       *==* -@$$$$$$$$$$$$$$$$$$$$$$$$$$$$$$$$$#@               ",
"       ;**;-@#$$$$$$$$$$$$$$$$$$$$$$$#$$$$$$$$$#@               ",
"        ;; @###$$$$$$$$$$$$$$##&#$#&#$$$$$$$$$$$#@              ",
"           @###$$$$$$$$$$$$$$$$#&&&##$$$$$$$$$$$#@              ",
"          @###$$$$$$$$$$$$$$$$$$$#&#$$$$$$$$$$$$$@              ",
"          @#$#$$$$$$$$$$$$$$$$$$$$#$$$$$$$$$$$$$$#@             ",
"          @$$$#$$&$$$$$$$$$$$$$$$$$$$$$$$$$$$$$$$$@             ",
"          @#$$##&&$$$$$$$$$$$$$$$$$$$$$$$$$$$$$$$$@             ",
"          @####&&#$$$$$$$$$$$$$$$$$$$$$$$$$$$$$$$#@             ",
"           @&&&&###$$$$$$$$$$$$$$$$$$$$$$$$$$$$$$@              ",
"          @&&#&#$$#$$$$$$$$$$$$$$$$$$$$$$$$$$$$$#@              ",
"         @&$$#&#$$$#$$$$$$$$$$$$$$$$$$$$$$$$$$$$$#@             ",
"         @#$$#&##$$$$$$$$$$$$$$$$$$$$$$$$$$$$$$$$#@@            ",
"        @#$$##&&#$$$$$$$$$$$$$$$$$$$$$$$$$$$$#$$$$#@            ",
"      > @#$$$$#&#$$$$$$#$$$$$$$$$$$$$$$$$$$$##&$$$#@            ",
"       >@#$$$$$##$$$$$$#&$$$$$$$$$$$$$$$$$$$&&&&###@            ",
"       +@&#$$$$#&&$$$$###&&#$$$$##$$$$$$$$$$$&$$##@             ",
"      ,++@&##$$$$&&$$#$$$$&&#$$###$$$$$$$$$$$#$$$#@             ",
"     >+,,@&&&&#$$$&&##$$$$$#&####$$$$$$$$$$$$$#$$##@            ",
"     ++   @&#$&#$$###$$$$$$$###$$$$$$$$$$$$$$$#####@  >         ",
"     ,,   @&$$####&#$$$$$$$$$#$$$$$$$$$$$$$$$$####&@ ++  >>+    ",
"         @&&$$$#&&&#$$#$$$$$##$$$$$$$$$$$$#$$&####&&@+, ++>     ",
"         @&#&##&&$#&###$$$$$###$$$$$$$$$$$$&&#####&&@,  ++,     ",
"         @#$$&&&$$$$##$$$$$#$$##$#$$&$$$#$$&$$###&&&@--++,+>    ",
"         @#$$#&&$$$$$#$$#$$$$$$$$$&&#$$#$###$$$###&&@==-,++,    ",
"         @&##&&&&$#$$#####$$$$$$$$$&###$$$###$$####&@--;,+,     ",
"          @&&&&#&&&#########$$$$$$$###$$$$######&##@ ;;  **     ",
"           @&&#$$&####&##$$#$$$$$$$#####$$&##&##&&&@    *==*    ",
"           @&@&$$#$###&&$$$#&$$$$$$$##&##&####&&&&@     ;**;    ",
"    >>     >@@@&#$$$#$#&$$##&$$$$#$$#&&&&&####&&&@     --;;     ",
"     >++ +>  @&&&$$&$$$#####&#$$######&@&&##&&&@@,    -=-;      ",
"  +>>,+,++,  @&&&&&#$$$#&##&#######&##&@&&&&&&&@      --;       ",
"   >+'',++, >>@&&@&####&@&&&####&##&&&&@@@&&&&&@      ;;        ",
"   ,'))'+,   >>@@@&&&&&&@@&&###&&&&&&&@@@@@@&&@                 ",
"    ;'';     ++,+@&&&&&@@@&&&&&&@&&&&@@@@@@@@@                  ",
"     ;;     !!+,, @@@@@@@@@&&&&@@@@@@~{]]@@^^^^              >> ",
"           !))!    ^^{{~~/@@@@@~~~~~~~{](_^^^^^^        +  ++>  ",
"           ;!!; !:^^{</~///~~//~~~~/~~/{[}^^^^^^^       >>,++,  ",
"            ;;  |:^{<<~~/~/~<<//~~//~~<{^^^^^^^^^       >++,,   ",
"               ^[[^{<{~<//~<<<</~/<//~/<{^^^^^^^^^      ,++     ",
"              ^^^^^{{~<<</~<<<<///<</~~/~{^^^^^^^^              ",
"              ^^^^^^{<<///{/<///</<</~~<<~{^^^^^^^              ",
"              ^^^^^{<<<</~{<<</<<<<</~~/<<{^^^^^^^              ",
"              ^^^^^{<<<</{/<<</<~<<<</{~/<{^^^^^^^              ",
"              ^^^^^{<<</~{<<<<<~~/</<<{{//{^^^^^^^              ",
"              ^^^^^{///~{/<<</<~{~/<<<<{^^^^^^^^^^              ",
"              ^^^^^^^^^^{<<<///~{~/<<<<<{^^^^^^^^               ",
"               ^^^^^^^^^{<<<//~{{{//<<</{^^^^^^^^               ",
"               ^^^^^^^^^{/////~^^^{/////{^^^^^^^                ",
"                ^^^^^^^^^^^^^^^^^^^^^^^^^^^^^^^^                ",
"                ^^^^^^^^^^^^^^^^^^^^^^^^^^^^^^^                 ",
"                 ^^^^^^^^^^^^^^^^^^^^^^^^^^^^^  >>   >          ",
"                  ^^^^^^^^^^^^^^^^^^^^^^^^^^^    >> >           ",
"                   ^^^^^^^^^^^^^^^^^^^^^^^^      ++,+           ",
"                       ^^^^^^^^^^^   ^^^^        ,+,,           "};
