/* XPM */
static char * C:\Users\Margaux\Documents\42\Solong\assets\tree_xpm[] = {
"48 48 18 1",
" 	c #719928",
".	c #5D7A1E",
"+	c #AAB254",
"@	c #082B0C",
"#	c #347B2C",
"$	c #53A03B",
"%	c #5C7445",
"&	c #114517",
"*	c #E5E15E",
"=	c #342319",
"-	c #53712D",
";	c #455A29",
">	c #503625",
",	c #21110D",
"'	c #755338",
")	c #A9A64B",
"!	c #7D8345",
"~	c #445F3C",
"            .                +                  ",
"          . . .            + + +                ",
" .        . . .   +        + + +                ",
" .        . . .   +                             ",
" . .              + +                           ",
" . .                                            ",
"          @@@@@  @@               @@@@@  @@     ",
"         @#$$$$@@$$@             @#$$$$@@$$@    ",
"    .  @@#$$$$$#$$#@ +         @@#$$$$$#$$#@    ",
"  . . @##$$$$$$$##@@ + +      @##$$$$$$$##@@    ",
"  . .@$$$#$$$$$$$$$#@+ +     @$$$#$$$$$$$$$#@   ",
"  . .@#$$$$$$$$$$$$$#@      +@#$$$$$$$$$$$$$#@  ",
"    @$$$$$$$$$$$$$$$#@      @$$$$$$$$$$$$$$$#@  ",
"    @#$$$$$$$$$$$$$$$@      @#$$$$$$$$$$$$$$$@  ",
"     @#$$$$$$$$$$#$$$@       @#$$$$$$$$$$#$$$@  ",
"    @$$$$$$$$$$$$$##@       @$$$$$$$$$$$$$##@   ",
"    @$#$$$$$$$$$$$$$#@      @$#$$$$$$$$$$$$$#@  ",
"    @#$$$$$$$$$$$$#$$#@   . @#$$$$$$$$$$$$#$$#@+",
"  %@#$$$$$$$$$$$$#&$$$@   .@#$$$$$$$$$$$$#&$$$@+",
" %%@#$$$$$$$$$$$$&$#$$@   .@#$$$$$$$$$$$$&$#$$@ ",
"  %@#$$#$#$$$$$$#$$$&#@    @#$$#$#$$$$$$#$$$&#@ ",
"  @#@#$$#$$$$$$$$$$$#@    @#@#$$#$$$$$$$$$$$#@  ",
"  @#$$$$#$$$#$$$$$$$$$@   @#$$$$#$$$#$$$$$$$$$@ ",
" @#$$$$$$#$$&#$$$$$$$$@  @#$$$$$$#$$&#$$$$$$$$@ ",
".@#$$$$$$$#&$$$$$$$$$@@  @#$$$$$$$#&$$$$$$$$$@@ ",
".@#$&$#$$$$$$$$$$$$$$$@  @#$&$#$$$$$$$$$$$$$$$@ ",
"  @##&&$$$$$$$$$$$$$$$$@  @##&&$$$$$$$$$$$$$$$$@",
"   @@$&&$$$$$$$$$$$$#$$@   @@$&&$$$$$$$$$$$$#$$@",
"   @#$$$$$$$$#$#$$$$&$$@   @#$$$$$$$$#$#$$$$&$$@",
". @#$$$$$$$$$##$$$$&#$#@  @#$$$$$$$$$##$$$$&#$#@",
"  @$$$$$$$$$#$$$$#&#&@@@  @$$$$$$$$$#$$$$#&#&@@@",
"  @#$$$$$$$$$$#$$$$$#&@   @#$$$$$$$$$$#$$$$$#&@ ",
"  @&&#$$#$#$$$$#$$$$##@   @&&#$$#$#$$$$#$$$$##@ ",
"   @@@&#$$&#$$$#$##$$#@    @@@&#$$&#$$$#$##$$#@ ",
"  % @&#$$$#&#$$$$$#@$$@   + @&#$$$#&#$$$$$#@$$@ ",
" %%@&#$$$$#&&&#$$$##@$@  +*@&#$$$$#&&&#$$$##@$@ ",
"  %@&$#$$#$$&##$$$$#@@    +@&$#$$#$$&##$$$$#@@  ",
"  .@&&&@#$$$##$$$#$#&@     @&&&@#$$$##$$$#$#&@  ",
"  .@&&@@$#&#$&$$#&###@     @&&@@$#&#$&$$#&###@  ",
"    @@&@@&&&@&&&@@&##@      @@&@@&&&@&&&@@&##@  ",
".    @&&@&&@=@&&&@&&@        @&&@&&@=@&&&@&&@   ",
".   -;@@@@@=>=@@@@@@--      --@@@@@=>=@@@@@@--  ",
"   ;-;-,=>,'''>>=,,-)--    ----,=>,'''>>=,,---- ",
"   ;-;-,>>=''>>,'>,-!-!    ----,>>=''>>,'>,---- ",
"   ~-~-~,,,='>,,,,!-!-!    -----,,,='>,,,,----- ",
".   -----;-,,,,-------     +-------,,,,-------  ",
"     ---;---;-;------      + !---------------   ",
"        ----~-~----        + +  -----------     "};
